<?xml version="1.0" standalone="no"?>
<!DOCTYPE svg PUBLIC "-//W3C//DTD SVG 20010904//EN"
 "http://www.w3.org/TR/2001/REC-SVG-20010904/DTD/svg10.dtd">
<svg version="1.0" xmlns="http://www.w3.org/2000/svg"
 width="512.000000pt" height="512.000000pt" viewBox="0 0 512.000000 512.000000"
 preserveAspectRatio="xMidYMid meet">
<metadata>
Created by potrace 1.14, written by Peter Selinger 2001-2017
</metadata>
<g transform="translate(0.000000,512.000000) scale(0.100000,-0.100000)"
fill="#000000" stroke="none">
<path d="M2328 5103 c6 -2 18 -2 25 0 6 3 1 5 -13 5 -14 0 -19 -2 -12 -5z"/>
<path d="M2773 5103 c9 -2 25 -2 35 0 9 3 1 5 -18 5 -19 0 -27 -2 -17 -5z"/>
<path d="M2853 5093 c9 -2 23 -2 30 0 6 3 -1 5 -18 5 -16 0 -22 -2 -12 -5z"/>
<path d="M2193 5083 c9 -2 25 -2 35 0 9 3 1 5 -18 5 -19 0 -27 -2 -17 -5z"/>
<path d="M2918 5083 c6 -2 18 -2 25 0 6 3 1 5 -13 5 -14 0 -19 -2 -12 -5z"/>
<path d="M2133 5073 c9 -2 23 -2 30 0 6 3 -1 5 -18 5 -16 0 -22 -2 -12 -5z"/>
<path d="M2968 5073 c6 -2 18 -2 25 0 6 3 1 5 -13 5 -14 0 -19 -2 -12 -5z"/>
<path d="M2073 5063 c9 -2 23 -2 30 0 6 3 -1 5 -18 5 -16 0 -22 -2 -12 -5z"/>
<path d="M3028 5063 c7 -3 16 -2 19 1 4 3 -2 6 -13 5 -11 0 -14 -3 -6 -6z"/>
<path d="M2025 5050 c-3 -6 1 -7 9 -4 18 7 21 14 7 14 -6 0 -13 -4 -16 -10z"/>
<path d="M3068 5053 c7 -3 16 -2 19 1 4 3 -2 6 -13 5 -11 0 -14 -3 -6 -6z"/>
<path d="M1988 5043 c7 -3 16 -2 19 1 4 3 -2 6 -13 5 -11 0 -14 -3 -6 -6z"/>
<path d="M1865 5010 c-44 -16 -74 -29 -67 -29 14 -1 163 47 171 55 11 10 -30
0 -104 -26z"/>
<path d="M3171 5025 c9 -8 192 -66 196 -61 2 2 -38 18 -89 35 -89 30 -117 37
-107 26z"/>
<path d="M3390 4950 c8 -5 20 -10 25 -10 6 0 3 5 -5 10 -8 5 -19 10 -25 10 -5
0 -3 -5 5 -10z"/>
<path d="M3435 4930 c3 -5 12 -10 18 -10 7 -1 75 -32 152 -70 77 -38 141 -67
144 -65 4 5 -298 155 -312 155 -4 0 -5 -4 -2 -10z"/>
<path d="M1520 4864 c-78 -40 -74 -45 7 -7 66 30 68 31 62 37 -2 2 -33 -11
-69 -30z"/>
<path d="M3760 4777 c0 -7 95 -67 106 -67 9 0 -10 14 -68 49 -21 12 -38 20
-38 18z"/>
<path d="M1155 4650 c-3 -5 -1 -10 4 -10 6 0 11 5 11 10 0 6 -2 10 -4 10 -3 0
-8 -4 -11 -10z"/>
<path d="M3950 4653 c1 -8 90 -66 90 -58 0 2 -20 18 -45 35 -25 17 -45 27 -45
23z"/>
<path d="M1069 4583 c-13 -16 -12 -17 4 -4 9 7 17 15 17 17 0 8 -8 3 -21 -13z"/>
<path d="M4056 4572 c-3 -6 1 -13 10 -16 23 -9 28 -2 10 13 -8 7 -17 8 -20 3z"/>
<path d="M4115 4530 c10 -11 20 -20 23 -20 3 0 -3 9 -13 20 -10 11 -20 20 -23
20 -3 0 3 -9 13 -20z"/>
<path d="M970 4505 c-11 -13 -10 -14 4 -9 9 3 16 10 16 15 0 13 -6 11 -20 -6z"/>
<path d="M4150 4491 c0 -5 9 -11 21 -14 16 -4 18 -3 8 9 -13 16 -29 19 -29 5z"/>
<path d="M4310 4355 c35 -36 67 -65 69 -65 3 0 -24 29 -59 65 -35 36 -67 65
-69 65 -3 0 24 -29 59 -65z"/>
<path d="M4430 4225 c19 -19 36 -35 39 -35 3 0 -10 16 -29 35 -19 19 -36 35
-39 35 -3 0 10 -16 29 -35z"/>
<path d="M4490 4156 c0 -2 8 -10 18 -17 15 -13 16 -12 3 4 -13 16 -21 21 -21
13z"/>
<path d="M4540 4096 c0 -2 8 -10 18 -17 15 -13 16 -12 3 4 -13 16 -21 21 -21
13z"/>
<path d="M1620 4050 c-13 -25 -29 -26 -46 -3 -11 17 -15 17 -56 2 l-43 -16 -3
-73 -3 -73 -88 6 c-103 6 -101 9 -101 -102 l0 -63 -87 2 c-49 1 -94 2 -100 1
-9 -1 -13 -23 -13 -76 l0 -75 -89 0 -88 0 -8 -169 c-5 -115 -3 -175 4 -189 10
-19 18 -20 153 -15 79 2 149 6 156 8 8 3 12 32 12 100 l0 95 35 0 35 0 0 153
0 154 370 -1 370 -1 0 -152 0 -153 156 0 155 0 -1 -57 c-1 -32 -1 -77 -1 -100
l1 -43 75 0 75 0 0 100 0 100 263 0 c144 0 390 2 547 3 157 2 364 2 460 -1
l175 -4 -3 -98 -3 -97 59 -6 c32 -4 76 -4 97 0 30 5 41 2 51 -12 8 -11 14 -14
14 -7 0 6 23 12 58 14 l57 3 3 390 c1 215 0 400 -3 413 -4 17 -12 22 -38 22
-20 0 -39 8 -50 20 -22 26 -43 25 -50 -1 -5 -19 -11 -21 -48 -15 -28 4 -46 2
-57 -6 -12 -10 -222 -13 -1051 -11 -1270 3 -1246 2 -1295 31 -45 27 -43 27
-56 2z"/>
<path d="M1305 3268 c-3 -13 -4 -147 -3 -298 l3 -275 433 -3 432 -2 0 300 0
300 -430 0 -430 0 -5 -22z m425 -260 c0 -84 -3 -162 -6 -173 -5 -19 -15 -20
-150 -23 l-144 -3 0 176 0 175 150 0 150 0 0 -152z m330 -7 c0 -88 -3 -166 -6
-175 -5 -13 -24 -16 -105 -16 l-99 0 0 175 0 175 105 0 105 0 0 -159z"/>
<path d="M2895 3277 c-3 -7 -4 -140 -3 -297 l3 -285 478 -3 477 -2 0 300 0
300 -475 0 c-374 0 -477 -3 -480 -13z m833 -293 l-3 -169 -352 -3 -353 -2 0
175 0 175 348 2 c191 2 350 0 355 -3 4 -3 6 -82 5 -175z"/>
<path d="M3368 2502 l-478 -2 0 -88 c0 -49 -3 -204 -7 -345 l-6 -257 491 0
492 0 0 344 c0 190 -3 346 -7 348 -5 2 -223 2 -485 0z m362 -329 c0 -109 -4
-203 -8 -210 -5 -8 -105 -12 -355 -15 l-347 -3 0 213 0 212 355 0 355 0 0
-197z"/>
<path d="M1298 2163 c-2 -186 -1 -341 2 -346 3 -4 202 -6 441 -5 l434 3 3 343
2 342 -439 0 -439 0 -4 -337z m422 -5 l0 -213 -145 0 -145 -1 0 213 0 213 145
0 145 0 0 -212z m328 0 l-3 -213 -97 -3 -98 -3 0 93 0 93 95 -2 95 -2 0 45 0
45 -95 -3 -95 -3 0 83 0 82 100 0 100 0 -2 -212z"/>
<path d="M2376 2414 c-3 -8 -6 -184 -6 -390 l0 -374 126 0 126 0 -5 388 -4
387 -115 3 c-99 2 -117 0 -122 -14z"/>
<path d="M985 1598 c-3 -29 -4 -71 -2 -93 4 -38 6 -40 43 -47 21 -4 245 -7
497 -7 l457 -1 0 100 0 100 -494 0 -495 0 -6 -52z"/>
<path d="M2990 1549 l0 -99 575 0 575 0 0 94 0 93 -56 7 c-31 4 -290 6 -575 6
l-519 -1 0 -100z"/>
</g>
</svg>
